<svg version="1.1" xmlns="http://www.w3.org/2000/svg" xmlns:xlink="http://www.w3.org/1999/xlink" width="22.97154" height="28.50718" viewBox="0,0,22.97154,28.50718"><g transform="translate(-228.51423,-165.74641)"><g data-paper-data="{&quot;isPaintingLayer&quot;:true}" fill="#ffffff" fill-rule="nonzero" stroke-width="0" stroke-linecap="butt" stroke-linejoin="miter" stroke-miterlimit="10" stroke-dasharray="" stroke-dashoffset="0" style="mix-blend-mode: normal"><g><g stroke="none"><path d="M234.58115,182.99637c-0.14309,-1.52246 0.97511,-2.87266 2.49757,-3.01575c1.52246,-0.14309 2.87266,0.97511 3.01575,2.49758c0.14309,1.52246 -0.97511,2.87266 -2.49757,3.01575c-1.52246,0.14309 -2.87266,-0.97511 -3.01575,-2.49758z"/><path d="M231.6891,184.33325c-0.1096,-1.16614 0.7469,-2.20033 1.91304,-2.30993c1.16614,-0.1096 2.20033,0.7469 2.30994,1.91304c0.1096,1.16614 -0.7469,2.20033 -1.91304,2.30993c-1.16614,0.1096 -2.20033,-0.7469 -2.30994,-1.91304z"/><path d="M231.32176,181.05423c-0.14309,-1.52246 0.97512,-2.87266 2.49758,-3.01575c1.52246,-0.14309 2.87266,0.97511 3.01575,2.49758c0.14309,1.52246 -0.97511,2.87266 -2.49757,3.01575c-1.52246,0.14309 -2.87266,-0.97511 -3.01575,-2.49757z"/><path d="M229.66119,189.19831c-0.0822,-0.87461 0.56017,-1.65025 1.43478,-1.73245c0.87461,-0.0822 1.65025,0.56017 1.73245,1.43478c0.0822,0.87461 -0.56017,1.65025 -1.43478,1.73245c-0.87461,0.0822 -1.65025,-0.56017 -1.73245,-1.43478z"/><path d="M234.203,188.41643c-0.06393,-0.68025 0.43569,-1.28353 1.11594,-1.34746c0.68025,-0.06393 1.28353,0.43569 1.34746,1.11594c0.06393,0.68025 -0.43569,1.28353 -1.11593,1.34746c-0.68025,0.06393 -1.28353,-0.43569 -1.34746,-1.11594z"/><path d="M228.52761,193.50596c-0.04263,-0.4535 0.29046,-0.85569 0.74396,-0.89831c0.4535,-0.04263 0.85569,0.29046 0.89831,0.74396c0.04263,0.4535 -0.29046,0.85568 -0.74396,0.89831c-0.4535,0.04263 -0.85568,-0.29046 -0.89831,-0.74396z"/><path d="M228.51791,183.32955c-0.04263,-0.4535 0.29046,-0.85568 0.74396,-0.89831c0.4535,-0.04263 0.85568,0.29046 0.89831,0.74396c0.04263,0.4535 -0.29046,0.85569 -0.74396,0.89831c-0.4535,0.04263 -0.85568,-0.29046 -0.89831,-0.74396z"/></g><g><path d="M245.87273,166.91028c1.73585,-1.03789 4.13643,-1.67373 5.13864,-0.63019c0.67878,0.70677 -0.45196,1.12541 -0.99196,1.98207c-0.90187,1.4307 -1.92478,3.0715 -3.07437,1.90662c-0.72486,-0.73451 -1.45204,-1.47261 -1.73687,-1.76123c-0.26824,-0.27182 -0.36834,-0.87968 0.66456,-1.49726z" stroke="none"/><path d="M245.87273,166.91028c1.73585,-1.03789 4.13643,-1.67373 5.13864,-0.63019c0.67878,0.70677 -0.45196,1.12541 -0.99196,1.98207c-0.90187,1.4307 -1.92478,3.0715 -3.07437,1.90662c-0.72486,-0.73451 -1.45204,-1.47261 -1.73687,-1.76123c-0.26824,-0.27182 -0.36834,-0.87968 0.66456,-1.49726z" stroke="none"/><path d="M245.87273,166.91028c1.73585,-1.03789 4.13643,-1.67373 5.13864,-0.63019c0.67878,0.70677 -0.45196,1.12541 -0.99196,1.98207c-0.90187,1.4307 -1.92478,3.0715 -3.07437,1.90662c-0.72486,-0.73451 -1.45204,-1.47261 -1.73687,-1.76123c-0.26824,-0.27182 -0.36834,-0.87968 0.66456,-1.49726z" stroke="none"/><path d="M245.87273,166.91028c1.73585,-1.03789 4.13643,-1.67373 5.13864,-0.63019c0.67878,0.70677 -0.45196,1.12541 -0.99196,1.98207c-0.90187,1.4307 -1.92478,3.0715 -3.07437,1.90662c-0.72486,-0.73451 -1.45204,-1.47261 -1.73687,-1.76123c-0.26824,-0.27182 -0.36834,-0.87968 0.66456,-1.49726z" stroke="none"/><path d="M237.07296,175.13324l6.88325,-6.61063l4.5295,4.7163l-6.88324,6.61063z" stroke="#000000"/><path d="M237.07296,175.13324l6.88325,-6.61063l4.5295,4.7163l-6.88324,6.61063z" stroke="#000000"/><path d="M237.07296,175.13324l6.88325,-6.61063l4.5295,4.7163l-6.88324,6.61063z" stroke="#000000"/><path d="M237.07296,175.13324l6.88325,-6.61063l4.5295,4.7163l-6.88324,6.61063z" stroke="#000000"/><path d="M235.35819,172.18137c0.39916,-0.54701 5.89902,-0.97914 5.89902,-0.97914c0,0 -1.14163,1.31423 -1.75178,1.90021c-0.57351,0.5508 -1.80603,1.51669 -1.80603,1.51669c0,0 -2.55287,-2.1477 -2.34121,-2.43776z" data-paper-data="{&quot;index&quot;:null}" stroke="#000000"/><path d="M235.35819,172.18137c0.39916,-0.54701 5.89902,-0.97914 5.89902,-0.97914c0,0 -1.14163,1.31423 -1.75178,1.90021c-0.57351,0.5508 -1.80603,1.51669 -1.80603,1.51669c0,0 -2.55287,-2.1477 -2.34121,-2.43776z" data-paper-data="{&quot;index&quot;:null}" stroke="#000000"/><path d="M235.35819,172.18137c0.39916,-0.54701 5.89902,-0.97914 5.89902,-0.97914c0,0 -1.14163,1.31423 -1.75178,1.90021c-0.57351,0.5508 -1.80603,1.51669 -1.80603,1.51669c0,0 -2.55287,-2.1477 -2.34121,-2.43776z" data-paper-data="{&quot;index&quot;:null}" stroke="#000000"/><path d="M235.35819,172.18137c0.39916,-0.54701 5.89902,-0.97914 5.89902,-0.97914c0,0 -1.14163,1.31423 -1.75178,1.90021c-0.57351,0.5508 -1.80603,1.51669 -1.80603,1.51669c0,0 -2.55287,-2.1477 -2.34121,-2.43776z" data-paper-data="{&quot;index&quot;:null}" stroke="#000000"/><path d="M248.65126,171.99262c-0.27688,-0.29625 -0.98502,-1.05265 -1.68965,-1.80658c-1.1175,-1.19569 0.56328,-2.1515 2.02924,-2.99485c0.87776,-0.50497 1.34173,-1.61787 2.02051,-0.9111c1.00221,1.04354 0.26993,3.41648 -0.83723,5.10899c-0.6588,1.0071 -1.26212,0.88254 -1.52288,0.60354z" data-paper-data="{&quot;index&quot;:null}" stroke="none"/><path d="M248.65126,171.99262c-0.27688,-0.29625 -0.98502,-1.05265 -1.68965,-1.80658c-1.1175,-1.19569 0.56328,-2.1515 2.02924,-2.99485c0.87776,-0.50497 1.34173,-1.61787 2.02051,-0.9111c1.00221,1.04354 0.26993,3.41648 -0.83723,5.10899c-0.6588,1.0071 -1.26212,0.88254 -1.52288,0.60354z" data-paper-data="{&quot;index&quot;:null}" stroke="none"/><path d="M248.65126,171.99262c-0.27688,-0.29625 -0.98502,-1.05265 -1.68965,-1.80658c-1.1175,-1.19569 0.56328,-2.1515 2.02924,-2.99485c0.87776,-0.50497 1.34173,-1.61787 2.02051,-0.9111c1.00221,1.04354 0.26993,3.41648 -0.83723,5.10899c-0.6588,1.0071 -1.26212,0.88254 -1.52288,0.60354z" data-paper-data="{&quot;index&quot;:null}" stroke="none"/><path d="M248.65126,171.99262c-0.27688,-0.29625 -0.98502,-1.05265 -1.68965,-1.80658c-1.1175,-1.19569 0.56328,-2.1515 2.02924,-2.99485c0.87776,-0.50497 1.34173,-1.61787 2.02051,-0.9111c1.00221,1.04354 0.26993,3.41648 -0.83723,5.10899c-0.6588,1.0071 -1.26212,0.88254 -1.52288,0.60354z" data-paper-data="{&quot;index&quot;:null}" stroke="none"/><path d="M242.14145,179.24438c0,0 1.01488,-1.1925 1.58839,-1.7433c0.61015,-0.58599 1.96942,-1.67361 1.96942,-1.67361c0,0 -0.65392,5.47792 -1.2166,5.85466c-0.29838,0.19978 -2.34121,-2.43776 -2.34121,-2.43776z" data-paper-data="{&quot;index&quot;:null}" stroke="#000000"/><path d="M242.14145,179.24438c0,0 1.01488,-1.1925 1.58839,-1.7433c0.61015,-0.58599 1.96942,-1.67361 1.96942,-1.67361c0,0 -0.65392,5.47792 -1.2166,5.85466c-0.29838,0.19978 -2.34121,-2.43776 -2.34121,-2.43776z" data-paper-data="{&quot;index&quot;:null}" stroke="#000000"/><path d="M242.14145,179.24438c0,0 1.01488,-1.1925 1.58839,-1.7433c0.61015,-0.58599 1.96942,-1.67361 1.96942,-1.67361c0,0 -0.65392,5.47792 -1.2166,5.85466c-0.29838,0.19978 -2.34121,-2.43776 -2.34121,-2.43776z" data-paper-data="{&quot;index&quot;:null}" stroke="#000000"/><path d="M242.14145,179.24438c0,0 1.01488,-1.1925 1.58839,-1.7433c0.61015,-0.58599 1.96942,-1.67361 1.96942,-1.67361c0,0 -0.65392,5.47792 -1.2166,5.85466c-0.29838,0.19978 -2.34121,-2.43776 -2.34121,-2.43776z" data-paper-data="{&quot;index&quot;:null}" stroke="#000000"/><path d="M241.64882,179.80502c-0.26879,0.25815 -1.50066,-0.58836 -2.75145,-1.89073c-1.25078,-1.30237 -2.04685,-2.56742 -1.77806,-2.82557c0.26879,-0.25815 1.50066,0.58836 2.75144,1.89073c1.25078,1.30237 2.04685,2.56742 1.77806,2.82556z" stroke="#000000"/><path d="M241.64882,179.80502c-0.26879,0.25815 -1.50066,-0.58836 -2.75145,-1.89073c-1.25078,-1.30237 -2.04685,-2.56742 -1.77806,-2.82557c0.26879,-0.25815 1.50066,0.58836 2.75144,1.89073c1.25078,1.30237 2.04685,2.56742 1.77806,2.82556z" stroke="#000000"/><path d="M241.64882,179.80502c-0.26879,0.25815 -1.50066,-0.58836 -2.75145,-1.89073c-1.25078,-1.30237 -2.04685,-2.56742 -1.77806,-2.82557c0.26879,-0.25815 1.50066,0.58836 2.75144,1.89073c1.25078,1.30237 2.04685,2.56742 1.77806,2.82556z" stroke="#000000"/><path d="M241.64882,179.80502c-0.26879,0.25815 -1.50066,-0.58836 -2.75145,-1.89073c-1.25078,-1.30237 -2.04685,-2.56742 -1.77806,-2.82557c0.26879,-0.25815 1.50066,0.58836 2.75144,1.89073c1.25078,1.30237 2.04685,2.56742 1.77806,2.82556z" stroke="#000000"/><path d="M241.62564,179.82728c-0.26879,0.25815 -1.50066,-0.58836 -2.75144,-1.89073c-1.25078,-1.30237 -2.04685,-2.56742 -1.77806,-2.82557c0.26879,-0.25815 1.50066,0.58836 2.75145,1.89073c1.25078,1.30237 2.04685,2.56742 1.77806,2.82557z" stroke="#000000"/><path d="M241.62564,179.82728c-0.26879,0.25815 -1.50066,-0.58836 -2.75144,-1.89073c-1.25078,-1.30237 -2.04685,-2.56742 -1.77806,-2.82557c0.26879,-0.25815 1.50066,0.58836 2.75145,1.89073c1.25078,1.30237 2.04685,2.56742 1.77806,2.82557z" stroke="#000000"/><path d="M241.62564,179.82728c-0.26879,0.25815 -1.50066,-0.58836 -2.75144,-1.89073c-1.25078,-1.30237 -2.04685,-2.56742 -1.77806,-2.82557c0.26879,-0.25815 1.50066,0.58836 2.75145,1.89073c1.25078,1.30237 2.04685,2.56742 1.77806,2.82557z" stroke="#000000"/><path d="M241.62564,179.82728c-0.26879,0.25815 -1.50066,-0.58836 -2.75144,-1.89073c-1.25078,-1.30237 -2.04685,-2.56742 -1.77806,-2.82557c0.26879,-0.25815 1.50066,0.58836 2.75145,1.89073c1.25078,1.30237 2.04685,2.56742 1.77806,2.82557z" stroke="#000000"/></g></g></g></g></svg>