<svg version="1.1" xmlns="http://www.w3.org/2000/svg" xmlns:xlink="http://www.w3.org/1999/xlink" width="19.36666" height="22.56509" viewBox="0,0,19.36666,22.56509"><g transform="translate(-230.31667,-168.71745)"><g data-paper-data="{&quot;isPaintingLayer&quot;:true}" fill="#ffffff" fill-rule="nonzero" stroke-width="0" stroke-linecap="butt" stroke-linejoin="miter" stroke-miterlimit="10" stroke-dasharray="" stroke-dashoffset="0" style="mix-blend-mode: normal"><g><g stroke="#000000"><path d="M232.37323,174.25287c1.61302,-0.73955 4.58689,1.4098 4.58689,1.4098l-6.27576,3.66412c0,0 -0.08843,-0.20988 -0.12589,-0.31578c-0.67084,-1.89631 0.09249,-3.9685 1.81475,-4.75814z"/><path d="M243.81304,169.02682c1.83249,-0.84017 4.05669,0.0898 4.96787,2.07716c0.44992,0.9813 0.49558,2.03692 0.2059,2.95536c-0.15996,-0.17479 -0.33306,-0.33785 -0.51775,-0.48651c0.15976,-0.71107 0.09104,-1.49752 -0.24685,-2.23448c-0.77183,-1.68341 -2.65584,-2.47115 -4.20808,-1.75947c-1.35136,0.61959 -2.00574,2.17137 -1.64318,3.67342c-0.16079,0.05247 -0.32229,0.10767 -0.48434,0.16533c-0.4571,-1.78996 0.31483,-3.65189 1.92643,-4.39079z"/><path d="M232.41462,174.25287l11.39842,-5.22605l0.24423,0.53269c-0.01441,0.00633 -0.02879,0.01278 -0.04314,0.01936c-1.23171,0.56473 -1.88439,1.90388 -1.71579,3.27394c0.01638,0.13309 0.2382,0.60647 0.2382,0.60647l-11.29539,5.45416z"/></g><g stroke="#000000"><path d="M230.74643,184.06703c-0.91118,-1.98736 -0.16431,-4.27953 1.66819,-5.11971c1.83249,-0.84017 4.05669,0.0898 4.96787,2.07715c0.91118,1.98736 0.1643,4.27954 -1.66819,5.11971c-1.83249,0.84018 -4.05669,-0.0898 -4.96787,-2.07716z"/><path d="M242.14485,178.84099c-0.91118,-1.98736 -0.1643,-4.27954 1.66819,-5.11972c1.83249,-0.84017 4.05669,0.0898 4.96787,2.07716c0.91118,1.98736 0.1643,4.27953 -1.66819,5.11971c-1.83249,0.84017 -4.05669,-0.08979 -4.96787,-2.07715zM246.80915,180.36949c1.55223,-0.71168 2.18489,-2.65328 1.41306,-4.33669c-0.77183,-1.68341 -2.65585,-2.47115 -4.20808,-1.75947c-1.55223,0.71168 -2.18488,2.65328 -1.41306,4.33669c0.77183,1.68341 2.65584,2.47115 4.20808,1.75947z"/><path d="M235.7143,186.14418l-3.29968,-7.19686l11.39842,-5.22604l0.24423,0.5327c-0.01441,0.00633 -0.02879,0.01277 -0.04314,0.01935c-1.55223,0.71168 -2.18488,2.65328 -1.41305,4.33669c0.77183,1.68341 2.65584,2.47115 4.20807,1.75947c0.01435,-0.00658 0.02863,-0.01326 0.04282,-0.02005l0.26074,0.5687z"/></g><path d="M242.65363,175.89706c1.49221,-0.2684 3.34418,-0.07884 3.77083,0.91836c0.28896,0.6754 -0.6149,0.66967 -1.22043,1.12753c-1.01128,0.76468 -2.16307,1.64467 -2.66096,0.52334c-0.31393,-0.70704 -0.62855,-1.41723 -0.7519,-1.69505c-0.11617,-0.26165 -0.02546,-0.71447 0.86246,-0.87418z" stroke="none"/><path d="M243.25693,180.19713c-0.11577,-0.28107 -0.41217,-0.99904 -0.70678,-1.71435c-0.46723,-1.13444 0.96461,-1.35984 2.21603,-1.56325c0.7493,-0.12179 1.36933,-0.77951 1.65829,-0.10412c0.42665,0.9972 -0.71512,2.46762 -1.93969,3.36157c-0.72866,0.53194 -1.11883,0.28485 -1.22785,0.02014z" data-paper-data="{&quot;index&quot;:null}" stroke="none"/><path d="M237.72986,186.6023l7.14104,-3.50194c0,0 0,2.39227 0,3.97647z" stroke="#000000"/><path d="M231.92388,191.28255l4.09833,-3.4609l12.17081,0.83513l1.49031,2.62578z" stroke="#000000"/></g></g></g></svg>